<?xml version="1.0" standalone="no"?>
<!DOCTYPE svg PUBLIC "-//W3C//DTD SVG 20010904//EN"
 "http://www.w3.org/TR/2001/REC-SVG-20010904/DTD/svg10.dtd">
<svg version="1.0" xmlns="http://www.w3.org/2000/svg"
 width="1024.000000pt" height="1024.000000pt" viewBox="0 0 1024.000000 1024.000000"
 preserveAspectRatio="xMidYMid meet">

<g transform="translate(0.000000,1024.000000) scale(0.100000,-0.100000)"
fill="#000000" stroke="none">
<path d="M5120 9973 c-2 -1114 2 -2566 6 -2578 4 -10 21 -15 53 -15 137 0 367
-45 546 -107 500 -174 919 -610 1085 -1130 67 -210 75 -267 75 -538 -1 -271
-12 -347 -85 -566 -153 -460 -510 -841 -973 -1039 -52 -22 -101 -40 -108 -41
-8 0 -3 -5 10 -10 19 -8 27 -6 33 6 12 20 35 19 47 -2 8 -13 10 -14 11 -4 0 8
3 11 7 8 3 -4 12 -2 20 5 10 8 17 7 27 -7 9 -13 15 -15 20 -6 8 12 44 -2 58
-23 5 -8 8 -7 8 2 0 20 37 14 43 -8 4 -16 14 -20 49 -20 24 0 59 -4 78 -10 25
-7 36 -7 43 3 7 9 10 9 14 0 2 -7 9 -13 14 -13 6 0 8 4 5 8 -6 10 37 11 44 0
3 -4 17 -9 30 -10 14 -2 31 -9 39 -17 13 -11 16 -11 21 5 6 16 7 15 13 -5 4
-18 11 -22 26 -18 11 3 21 1 23 -4 2 -4 38 -9 81 -10 60 -2 81 1 88 12 5 9 9
10 9 2 0 -7 -8 -16 -17 -22 -16 -9 -15 -11 7 -19 14 -5 28 -8 33 -5 4 2 7 -1
7 -8 0 -9 3 -9 14 0 7 6 21 9 30 5 9 -3 22 -1 30 5 10 9 15 8 20 -4 3 -9 2
-13 -4 -10 -6 3 -7 -1 -3 -10 3 -9 9 -13 12 -8 3 5 24 9 45 9 21 0 34 -2 28
-4 -7 -2 -12 -9 -12 -15 0 -5 3 -8 6 -4 3 3 17 2 30 -3 22 -9 23 -8 15 8 -7
14 -6 18 9 18 10 0 18 -3 18 -6 -2 -18 4 -23 12 -10 8 13 10 12 10 -2 0 -10 7
-18 16 -18 9 0 13 5 8 13 -3 6 5 -1 20 -17 21 -24 27 -26 32 -12 8 21 30 21
43 -1 7 -14 13 -15 34 -6 22 10 26 9 31 -10 5 -17 8 -19 15 -8 5 8 16 11 27 7
10 -4 21 -1 26 6 5 9 8 7 8 -7 l1 -20 16 20 c13 16 15 17 10 3 -4 -10 -2 -18
3 -18 6 0 10 6 10 13 0 8 3 9 8 1 4 -6 17 -10 30 -9 13 1 25 -1 27 -5 5 -9
104 -7 -1021 -16 l-1002 -7 -8 139 c-14 238 -11 868 5 954 41 227 99 313 266
394 101 49 190 69 380 85 50 5 76 9 58 9 -55 3 -46 20 29 56 95 47 82 45 -41
-4 -97 -38 -262 -72 -278 -57 -7 8 16 27 87 69 25 15 41 28 37 28 -15 0 -92
-43 -129 -73 -37 -29 -269 -148 -277 -141 -6 6 21 66 67 146 51 90 148 185
226 222 28 13 103 36 166 51 63 16 146 39 184 51 38 13 73 21 79 17 5 -3 7 -1
4 4 -10 17 22 37 56 36 21 0 24 1 10 4 -13 2 -23 7 -23 10 0 3 19 28 42 57
l43 51 -71 -66 c-60 -56 -82 -69 -150 -91 -43 -15 -107 -32 -142 -38 -35 -6
-71 -14 -80 -17 -9 -4 4 17 30 46 26 29 72 88 102 131 46 66 64 82 109 103 56
25 137 91 137 110 0 6 -6 2 -14 -9 -19 -26 -80 -69 -129 -89 l-39 -16 7 33 c3
18 9 42 11 53 5 20 5 20 -10 1 -9 -11 -16 -32 -16 -48 0 -44 -154 -246 -221
-289 -76 -50 -149 -91 -149 -84 0 20 58 115 95 154 50 54 67 85 90 166 10 33
28 81 41 108 14 26 22 47 19 47 -10 0 -53 -97 -75 -170 -18 -61 -30 -83 -68
-120 l-46 -45 -12 60 -13 60 3 -65 c3 -58 0 -71 -30 -126 -18 -34 -65 -99
-104 -145 -58 -69 -88 -120 -168 -281 -53 -109 -100 -198 -103 -198 -3 0 -9
73 -13 163 -11 250 16 414 88 526 77 122 254 311 291 311 16 0 17 2 6 9 -12 8
-8 16 18 46 17 20 44 48 59 62 25 22 25 23 3 9 -44 -28 -284 -269 -350 -351
-35 -44 -76 -105 -90 -135 l-26 -55 -3 39 c-2 22 2 78 8 125 15 119 51 190
153 298 129 140 154 161 231 197 80 38 181 135 203 194 15 43 8 40 -16 -6 -27
-53 -125 -140 -189 -169 -29 -12 -55 -23 -58 -23 -12 0 52 103 74 121 28 21
24 24 -10 8 -13 -5 -37 -36 -53 -67 -27 -53 -220 -261 -231 -250 -2 3 18 65
45 139 28 74 62 174 77 224 25 86 30 93 98 159 39 38 60 61 46 50 -14 -10 -44
-36 -67 -58 -27 -25 -43 -35 -43 -26 -1 8 -6 3 -13 -12 -7 -15 -48 -58 -92
-95 -43 -37 -75 -59 -71 -48 5 11 19 58 32 104 13 46 36 102 51 125 57 83 54
85 -9 6 -23 -30 -41 -68 -52 -110 -17 -69 -91 -230 -105 -230 -16 0 -21 31
-21 130 0 94 16 184 39 229 13 24 14 34 2 27 -5 -4 -21 -38 -36 -76 -15 -39
-30 -68 -35 -65 -4 3 -25 34 -46 70 -21 35 -39 63 -41 61 -2 -2 13 -38 33 -80
36 -75 36 -79 37 -206 1 -90 -2 -133 -11 -142 -9 -9 -12 -9 -12 0 0 7 -18 41
-39 75 -27 43 -48 95 -66 167 -15 58 -34 112 -42 120 -14 13 -14 13 -5 -5 15
-30 54 -194 49 -208 -2 -6 -54 37 -115 98 -115 112 -184 166 -101 79 59 -62
64 -72 104 -212 18 -65 47 -152 65 -196 17 -43 29 -83 28 -88 -6 -17 -213 195
-238 243 -13 26 -38 55 -54 64 l-31 18 31 -34 c40 -45 79 -109 64 -109 -27 0
-111 53 -175 111 -70 65 -71 56 -3 -19 24 -26 71 -58 125 -86 77 -38 102 -58
193 -153 113 -117 157 -190 184 -300 17 -70 29 -203 19 -203 -5 0 -23 27 -42
60 -19 32 -68 99 -111 147 -88 100 -324 322 -272 256 l33 -42 -28 -4 c-24 -3
-23 -4 7 -6 30 -1 48 -14 115 -78 88 -86 195 -228 232 -311 44 -95 63 -218 63
-414 0 -137 -3 -178 -13 -178 -16 0 -62 78 -120 201 -49 106 -96 179 -181 283
-79 95 -106 152 -107 223 l-1 58 -10 -43 c-9 -41 -11 -43 -30 -30 -33 22 -78
90 -104 159 -14 35 -22 51 -19 36 14 -69 50 -140 94 -189 44 -48 108 -155 99
-164 -7 -6 -161 85 -190 113 -15 14 -55 66 -89 114 -33 48 -67 90 -76 93 -8 3
-11 10 -8 16 8 14 -12 75 -30 90 -9 8 -8 -4 6 -40 l19 -52 -21 7 c-53 17 -89
36 -128 69 -60 50 -66 44 -8 -9 27 -24 68 -50 96 -60 52 -17 84 -46 126 -115
15 -25 50 -72 78 -104 l51 -59 -54 6 c-30 3 -102 20 -160 39 -100 32 -107 36
-175 103 -38 38 -58 54 -42 35 15 -19 35 -46 45 -60 9 -14 27 -33 40 -43 12
-10 20 -23 17 -28 -4 -5 0 -6 8 -3 8 3 37 -4 66 -16 29 -11 116 -36 193 -55
145 -35 199 -60 280 -127 62 -52 158 -196 183 -277 l7 -23 -44 25 c-23 14 -68
35 -98 47 -30 12 -80 38 -110 59 -30 20 -73 47 -95 60 -40 23 -40 23 -15 1 14
-12 38 -33 55 -46 16 -12 27 -25 25 -28 -13 -12 -213 35 -283 67 -42 20 -77
31 -77 26 0 -5 4 -9 10 -9 5 0 33 -15 62 -32 l53 -33 -35 -6 c-27 -5 -21 -7
30 -8 36 -1 117 -12 180 -25 290 -59 403 -157 462 -401 20 -85 22 -118 25
-617 l4 -528 -2540 0 -2541 0 0 -30 0 -30 2545 0 c2274 0 2545 -2 2545 -15 0
-39 -133 -262 -236 -397 -24 -31 -44 -61 -44 -67 0 -5 -6 -14 -12 -18 -7 -4
-22 -19 -33 -33 -20 -24 -19 -24 17 3 22 16 39 23 43 17 4 -6 1 -9 -7 -8 -7 2
-12 -3 -10 -10 1 -6 -1 -11 -5 -11 -22 4 -25 -3 -7 -17 19 -15 19 -16 -1 -10
-20 6 -20 6 -1 -9 11 -8 22 -11 25 -7 9 13 49 9 44 -4 -2 -7 1 -15 8 -20 8 -4
10 -3 5 4 -5 8 0 12 13 12 10 0 27 3 36 6 11 5 18 0 22 -15 4 -17 8 -19 19
-10 7 6 19 7 26 3 7 -4 27 -7 45 -6 25 2 33 -1 33 -14 0 -14 -2 -15 -17 -3
-15 12 -16 12 -10 -4 4 -10 7 -21 7 -23 0 -3 9 0 20 6 11 6 20 7 20 3 0 -4 4
-2 9 5 7 11 9 11 14 -2 4 -11 1 -16 -11 -16 -13 0 -14 -2 -4 -9 7 -4 15 -17
17 -27 2 -10 4 -670 4 -1466 l1 -1448 2560 0 2560 0 0 5120 0 5120 -2560 0
-2560 0 0 -267z m580 -878 c0 -8 -7 -15 -15 -15 -8 0 -15 7 -15 15 0 8 7 15
15 15 8 0 15 -7 15 -15z m856 -872 c-10 -10 -19 5 -10 18 6 11 8 11 12 0 2 -7
1 -15 -2 -18z m-611 -92 c7 -12 -12 -24 -25 -16 -11 7 -4 25 10 25 5 0 11 -4
15 -9z m-731 -302 c-3 -5 -10 -7 -15 -3 -5 3 -7 10 -3 15 3 5 10 7 15 3 5 -3
7 -10 3 -15z m26 -119 c0 -5 -4 -10 -10 -10 -5 0 -10 5 -10 10 0 6 5 10 10 10
6 0 10 -4 10 -10z m955 -120 c3 -5 1 -10 -4 -10 -6 0 -11 5 -11 10 0 6 2 10 4
10 3 0 8 -4 11 -10z m-715 -51 c0 -5 -7 -9 -15 -9 -15 0 -20 12 -9 23 8 8 24
-1 24 -14z m465 -29 c-3 -5 -13 -10 -21 -10 -8 0 -14 5 -14 10 0 6 9 10 21 10
11 0 17 -4 14 -10z m315 -50 c0 -5 -4 -10 -10 -10 -5 0 -10 5 -10 10 0 6 5 10
10 10 6 0 10 -4 10 -10z m175 -330 c3 -5 -1 -10 -9 -10 -9 0 -16 5 -16 10 0 6
4 10 9 10 6 0 13 -4 16 -10z m630 -50 c0 -8 -8 -16 -17 -18 -13 -2 -18 3 -18
18 0 15 5 20 18 18 9 -2 17 -10 17 -18z m1173 -1 c-2 -6 -8 -10 -13 -10 -5 0
-11 4 -13 10 -2 6 4 11 13 11 9 0 15 -5 13 -11z m-1818 -84 c0 -8 -4 -15 -9
-15 -13 0 -22 16 -14 24 11 11 23 6 23 -9z m1215 -265 c3 -5 1 -10 -4 -10 -6
0 -11 5 -11 10 0 6 2 10 4 10 3 0 8 -4 11 -10z m-2259 -436 c-47 -138 -180
-432 -190 -416 -3 5 -8 38 -12 73 -8 83 18 227 53 286 21 36 182 197 190 189
1 -1 -17 -61 -41 -132z m-332 -75 c41 -73 66 -188 66 -296 0 -51 -3 -93 -7
-93 -16 1 -154 312 -197 445 -25 77 -46 142 -46 145 0 16 163 -162 184 -201z
m1786 81 c0 -5 -5 -10 -11 -10 -5 0 -7 5 -4 10 3 6 8 10 11 10 2 0 4 -4 4 -10z
m1695 -110 c-5 -8 -11 -8 -17 -2 -6 6 -7 16 -3 22 5 8 11 8 17 2 6 -6 7 -16 3
-22z m-1375 -400 c0 -5 -7 -10 -15 -10 -8 0 -15 5 -15 10 0 6 7 10 15 10 8 0
15 -4 15 -10z m700 -94 c0 -8 -4 -17 -9 -21 -12 -7 -24 12 -16 25 9 15 25 12
25 -4z m-730 -116 c0 -5 -4 -10 -10 -10 -5 0 -10 5 -10 10 0 6 5 10 10 10 6 0
10 -4 10 -10z m-90 -374 c0 -3 -4 -8 -10 -11 -5 -3 -10 -1 -10 4 0 6 5 11 10
11 6 0 10 -2 10 -4z m900 -152 c0 -17 -26 -19 -36 -3 -7 12 15 31 28 23 4 -3
8 -12 8 -20z m-920 -164 c0 -5 -5 -10 -11 -10 -5 0 -7 5 -4 10 3 6 8 10 11 10
2 0 4 -4 4 -10z m-29 -223 c-1 -12 -15 -9 -19 4 -3 6 1 10 8 8 6 -3 11 -8 11
-12z m-81 -122 c0 -8 -4 -15 -10 -15 -5 0 -10 7 -10 15 0 8 5 15 10 15 6 0 10
-7 10 -15z m-153 -131 c-9 -9 -28 6 -21 18 4 6 10 6 17 -1 6 -6 8 -13 4 -17z
m983 -24 c0 -5 -4 -10 -10 -10 -5 0 -10 5 -10 10 0 6 5 10 10 10 6 0 10 -4 10
-10z m320 -40 c0 -5 -7 -10 -15 -10 -8 0 -15 5 -15 10 0 6 7 10 15 10 8 0 15
-4 15 -10z m-900 -320 c0 -5 -2 -10 -4 -10 -3 0 -8 5 -11 10 -3 6 -1 10 4 10
6 0 11 -4 11 -10z m-1060 -110 c0 -5 -4 -10 -10 -10 -5 0 -10 5 -10 10 0 6 5
10 10 10 6 0 10 -4 10 -10z m63 -17 c-7 -2 -21 -2 -30 0 -10 3 -4 5 12 5 17 0
24 -2 18 -5z m1185 -220 c-10 -2 -26 -2 -35 0 -10 3 -2 5 17 5 19 0 27 -2 18
-5z m633 -80 c646 -5 1148 -9 1117 -11 -32 -2 -58 -7 -58 -11 0 -5 -63 -12
-140 -16 -102 -5 -140 -10 -140 -19 0 -7 -10 -18 -22 -24 -21 -10 -20 -11 12
-11 134 0 531 -14 555 -20 17 -5 -106 -11 -275 -14 -495 -10 -854 -17 -1025
-18 -88 -1 -148 -4 -132 -6 15 -2 27 -9 27 -14 0 -5 -269 -9 -687 -10 -379 -1
-769 -4 -868 -8 l-180 -6 150 -7 c83 -4 272 -10 420 -13 149 -3 289 -8 313
-11 45 -6 66 -29 41 -46 -9 -6 -327 -8 -847 -5 l-834 4 -10 -23 c-9 -19 -14
-22 -25 -12 -40 33 -179 280 -168 299 7 11 1149 12 2776 2z m-336 -542 c204
-12 -279 -21 -1189 -21 l-891 0 -14 22 -13 21 1003 -8 c552 -4 1049 -11 1104
-14z m-2790 -11 c3 -6 -1 -7 -9 -4 -18 7 -21 14 -7 14 6 0 13 -4 16 -10z"/>
<path d="M5154 6696 c-5 -20 -9 -24 -19 -16 -11 9 -12 6 -8 -12 11 -50 16 -51
28 -3 7 28 12 52 10 54 -2 2 -7 -9 -11 -23z"/>
<path d="M5240 6640 c-6 -11 -8 -20 -6 -20 3 0 10 9 16 20 6 11 8 20 6 20 -3
0 -10 -9 -16 -20z"/>
<path d="M4700 6576 c0 -2 8 -10 18 -17 15 -13 16 -12 3 4 -13 16 -21 21 -21
13z"/>
<path d="M5451 6524 c0 -11 3 -14 6 -6 3 7 2 16 -1 19 -3 4 -6 -2 -5 -13z"/>
<path d="M4330 6117 c0 -2 15 -16 33 -33 l32 -29 -29 33 c-28 30 -36 37 -36
29z"/>
<path d="M5859 6043 c-13 -16 -12 -17 4 -4 9 7 17 15 17 17 0 8 -8 3 -21 -13z"/>
<path d="M4410 6026 c0 -2 8 -10 18 -17 15 -13 16 -12 3 4 -13 16 -21 21 -21
13z"/>
<path d="M4555 5970 c11 -5 29 -8 40 -8 16 0 15 2 -5 8 -34 11 -60 11 -35 0z"/>
<path d="M5603 5963 c9 -2 25 -2 35 0 9 3 1 5 -18 5 -19 0 -27 -2 -17 -5z"/>
<path d="M4477 5925 c9 -19 18 -33 21 -31 4 5 -26 66 -33 66 -3 0 3 -16 12
-35z"/>
<path d="M5930 3900 c0 -5 5 -10 10 -10 6 0 10 5 10 10 0 6 -4 10 -10 10 -5 0
-10 -4 -10 -10z"/>
<path d="M4920 3010 c0 -5 5 -10 10 -10 6 0 10 5 10 10 0 6 -4 10 -10 10 -5 0
-10 -4 -10 -10z"/>
<path d="M4960 2950 c0 -5 5 -10 11 -10 5 0 7 5 4 10 -3 6 -8 10 -11 10 -2 0
-4 -4 -4 -10z"/>
</g>
</svg>
